<svg width="683" height="570" viewBox="0 0 683 570" fill="none" xmlns="http://www.w3.org/2000/svg">
<path d="M456.507 327.323H456.291H456.507ZM156.618 432.087C157.983 432.303 165.453 432.662 165.453 431.369C165.453 430.615 164.088 430.651 164.088 430.651C164.268 424.904 171.559 423.468 176.766 426.484C178.201 427.311 179.528 428.31 180.717 429.465C173.354 429.86 163.585 434.889 164.232 442.179C164.603 444.08 165.4 445.873 166.563 447.423C167.727 448.97 169.225 450.236 170.948 451.122C173.101 452.732 175.553 453.899 178.161 454.552C180.769 455.207 183.482 455.333 186.14 454.929C190.874 453.723 195.04 450.903 197.92 446.956C204.43 447.162 210.799 445.034 215.878 440.958C216.092 440.787 216.269 440.575 216.399 440.335C216.529 440.093 216.608 439.83 216.632 439.558C216.632 438.301 216.632 438.372 209.449 430.399C209.245 430.171 208.99 429.998 208.706 429.891C208.42 429.783 208.114 429.744 207.811 429.78C207.509 429.812 207.219 429.92 206.966 430.091C206.714 430.261 206.506 430.492 206.36 430.758C206.236 430.914 206.128 431.084 206.037 431.261C205.466 432.333 204.544 433.173 203.426 433.647C202.307 434.116 201.06 434.188 199.895 433.847C196.304 432.806 191.671 423.288 183.231 417.613C175.868 412.657 165.992 411.185 159.024 417.075C156.025 419.648 153.893 423.084 152.919 426.915C152.531 428.097 152.608 429.381 153.134 430.507C154.078 431.42 155.309 431.979 156.618 432.087ZM170.122 445.412C169.137 444.708 168.453 443.66 168.207 442.475C167.961 441.29 168.17 440.057 168.793 439.019C170.386 436.816 172.599 435.143 175.15 434.206C173.092 437.696 171.406 441.389 170.122 445.232V445.412ZM203.954 439.737C204.816 437.151 203.954 438.049 205.39 437.403C206.478 436.861 207.463 436.131 208.3 435.248L211.568 439.127C208.861 440.841 205.868 442.059 202.733 442.718C203.092 441.784 203.667 440.348 203.954 439.558V439.737ZM190.953 430.579C194.365 434.853 197.202 438.66 202.409 438.229C201.666 439.776 201.065 441.386 200.614 443.041C197.992 443.221 197.633 442.61 196.591 443.041C194.544 443.831 191.168 451.194 182.979 451.158C183.489 450.017 183.816 448.805 183.949 447.567C186.266 447.1 188.435 446.076 190.27 444.586C191.056 443.903 191.567 442.96 191.707 441.928C191.707 440.671 191.276 439.055 188.618 436.936C189.608 434.838 190.39 432.649 190.953 430.399V430.579ZM178.885 444.155C175.725 442.467 181.112 439.486 184.596 439.593C185.396 439.599 186.179 439.832 186.852 440.263C187.526 440.694 188.063 441.312 188.403 442.036C187.923 442.808 187.29 443.475 186.544 443.993C185.797 444.514 184.953 444.876 184.061 445.055C183.171 445.238 182.252 445.235 181.362 445.049C180.471 444.864 179.629 444.499 178.885 443.975V444.155ZM183.123 422.175C185.561 424.249 187.776 426.571 189.731 429.106C188.595 431.177 187.726 433.386 187.146 435.679C185.636 435.244 184.054 435.128 182.497 435.331C180.94 435.535 179.442 436.056 178.095 436.864C171.523 440.455 173.067 448.321 182.189 447.423C181.653 448.455 181.254 449.554 181.004 450.691C177.362 449.964 173.956 448.348 171.092 445.986C173.637 442.03 175.62 437.738 176.982 433.236C178.378 432.596 179.888 432.239 181.424 432.189C182.96 432.141 184.49 432.398 185.925 432.949L186.679 430.112L185.889 429.753C184.201 428.603 183.446 427.706 181.507 426.161C182.227 424.85 182.77 423.449 183.123 421.995V422.175ZM169.188 416.428C173.683 416.509 178.034 418.02 181.615 420.738C180.972 422.201 180.49 423.731 180.178 425.299C178.457 423.95 176.425 423.045 174.268 422.677C172.112 422.306 169.897 422.48 167.823 423.18C168.581 421.001 169.04 418.729 169.188 416.428ZM160.964 419.23C162.955 417.679 165.347 416.733 167.859 416.5C166.745 418.915 166.052 421.501 165.812 424.15C164.742 424.791 163.866 425.712 163.278 426.814C162.689 427.912 162.411 429.151 162.472 430.399C159.955 430.537 157.437 430.16 155.074 429.286C155.608 425.296 157.699 421.68 160.892 419.23H160.964ZM107.307 413.232C100.842 410.43 86.4758 418.727 83.854 423.18C83.4746 424.162 83.4746 425.251 83.854 426.233C86.1167 434.817 107.235 465.129 111.149 469.834C111.832 470.696 112.766 469.511 112.155 468.505C110.287 465.416 110.503 471.63 120.056 440.707C120.941 440.359 121.765 439.875 122.499 439.27C122.832 438.899 123.016 438.42 123.016 437.923C123.016 437.426 122.832 436.944 122.499 436.577C122.172 436.172 121.799 435.81 121.385 435.499L123.648 427.131L132.627 432.087C130.811 436.624 129.486 441.344 128.676 446.166C125.054 447.471 121.661 449.338 118.62 451.697C116.501 454.031 119.841 458.341 121.924 460.927C124.007 463.513 125.767 465.273 126.162 465.668C126.557 466.063 127.814 465.668 127.706 465.021C127.478 464.5 127.175 464.018 126.808 463.585C124.862 460.555 123.191 457.359 121.816 454.031C124.607 452.361 127.554 450.966 130.615 449.865C131.729 449.47 135.177 448.393 136.11 448.967C140.718 451.394 145.524 453.423 150.476 455.037C150.676 455.132 150.906 455.145 151.114 455.07C151.323 454.995 151.494 454.842 151.59 454.642C151.685 454.441 151.697 454.211 151.622 454.004C151.549 453.795 151.395 453.624 151.195 453.529L144.981 449.757C146.304 446.758 147.152 443.571 147.495 440.312L162.831 448.608C163.765 449.147 164.483 447.674 163.801 447.279C163.118 446.884 116.573 417.29 107.307 413.232ZM101.847 417.039C103.101 416.661 104.437 416.661 105.69 417.039C106.516 417.398 108.528 418.475 111.257 419.984C110.336 422.525 109.71 425.164 109.39 427.849C106.983 426.484 105.547 425.443 103.643 425.766C102.606 425.999 101.635 426.466 100.806 427.131C101.165 424.33 101.488 422.175 101.847 417.039ZM87.4814 424.94C91.2062 421.387 95.7249 418.778 100.662 417.326C98.745 425.799 97.4012 434.388 96.6398 443.041C93.0182 437.307 89.9629 431.231 87.5174 424.904L87.4814 424.94ZM103.787 455.145C101.812 451.876 99.6566 448.249 97.6095 444.693C98.8306 439.558 99.2257 437.187 99.9799 432.339C101.945 435.747 104.217 438.968 106.768 441.964C105.319 446.24 104.332 450.658 103.823 455.145H103.787ZM110.072 465.488C108.779 463.441 107.127 460.676 104.972 457.12C106.336 452.612 107.238 447.979 107.666 443.293C108.456 445.196 115.495 442.467 117.399 441.748C115.998 446.166 111.114 461.538 110.108 465.488H110.072ZM108.995 442.179C106.768 438.327 104.801 434.332 103.104 430.22L104.218 429.609C104.721 429.896 117.004 437.151 117.901 437.726C115.102 439.507 112.13 440.997 109.03 442.179H108.995ZM119.769 434.278C117.075 432.482 113.412 430.291 110.611 428.675C111.569 426.131 112.197 423.476 112.478 420.774L122.678 426.52C122.499 427.885 121.277 430.687 119.985 434.278H119.769ZM143.545 448.644L138.014 445.304C135.556 444.334 132.821 444.334 130.364 445.304C131.756 441.104 132.766 436.789 133.381 432.41L146.382 439.593C145.054 442.523 144.17 445.633 143.76 448.824L143.545 448.644Z" fill="#E6E1E5"/>
<path d="M680.44 461.43C674.622 407.27 624.481 323.983 594.528 278.479C611.253 279.817 628.04 280.236 644.806 279.736C649.586 279.736 662.084 278.874 664.494 278.407C665.891 278.12 666.107 276.791 663.991 276.719C661.869 276.647 646.785 275.929 644.741 275.893H608.212C602.609 276.108 593.846 276.611 593.343 276.611C582.569 260.198 575.062 249.926 574.991 249.89C574.91 249.807 574.808 249.741 574.7 249.699C574.59 249.657 574.473 249.639 574.353 249.645C574.236 249.654 574.123 249.684 574.018 249.741C573.913 249.795 573.824 249.87 573.752 249.962C573.68 250.055 573.629 250.163 573.599 250.276C573.572 250.393 573.569 250.51 573.593 250.627C573.614 250.741 573.662 250.851 573.728 250.947C573.796 251.043 573.883 251.124 573.985 251.183C575.637 252.512 648.221 358.569 670.417 431.62C679.219 460.604 684.424 496.986 656.051 507.042C588.674 531.105 60.9748 538.934 11.0893 510.633C4.15766 506.719 2.54148 498.566 3.90625 487.576C6.02524 472.312 14.2496 451.661 24.1623 428.532C35.3318 439.306 127.992 524.389 143.005 521.192C158.017 517.996 242.453 478.777 245.937 471.271C247.961 466.057 249.032 460.52 249.098 454.929C249.523 454.343 249.721 453.625 249.655 452.903C249.589 452.185 249.264 451.511 248.739 451.015C243.172 445.484 132.733 357.923 125.622 358.174C120.666 358.39 111.687 363.49 107.413 366.004C106.027 363.735 103.964 361.964 101.516 360.931C99.0663 359.898 96.3557 359.665 93.7652 360.257C91.3237 361.242 89.1368 362.771 87.3704 364.723C85.6034 366.677 84.3026 369.006 83.5654 371.535C83.6059 371.729 83.7123 371.903 83.8658 372.028C84.0192 372.154 84.2118 372.22 84.4097 372.22C84.6082 372.22 84.8002 372.154 84.9536 372.028C85.1078 371.903 85.2135 371.729 85.2534 371.535C87.4142 367.88 90.8385 365.148 94.8786 363.849C96.5594 363.591 98.2775 363.816 99.8355 364.495C101.393 365.175 102.726 366.285 103.678 367.692L63.7403 384.751C61.62 382.573 58.9727 380.974 56.0545 380.118C49.2306 378.323 44.6338 382.812 41.9042 389.384C41.8444 389.573 41.8512 389.777 41.924 389.962C41.9967 390.148 42.1311 390.301 42.3041 390.396C42.4771 390.495 42.6782 390.528 42.8737 390.495C43.0691 390.462 43.2468 390.36 43.3768 390.21C47.9736 383.566 53.289 381.303 59.646 386.619C51.9602 390.031 41.2218 394.879 33.6797 398.615C34.2184 397.753 111.723 257.397 111.723 257.038C115.135 250.716 121.994 239.403 129.07 237.931C132.268 237.233 135.53 236.872 138.803 236.853C133.81 245.114 93.2983 312.275 93.2265 321.756C93.2265 332.531 95.0941 330.843 100.84 332.531C106.587 334.219 428.134 332.244 428.709 332.244C434.276 332.244 456.04 331.525 458.051 330.053C464.3 325.456 462.9 318.596 460.17 311.377C459.524 309.653 456.256 302.506 451.874 292.953C470.729 287.278 484.916 294.497 486.209 325.276C487.502 351.889 477.014 360.006 456.938 358.857C440.812 357.923 429.678 353.182 426.159 359.467C422.208 366.471 433.126 382.201 437.867 388.738C437.185 388.738 407.124 388.127 399.546 387.804C388.867 387.391 378.176 387.523 367.509 388.199C360.165 388.361 352.862 389.361 345.745 391.18C343.051 392.509 339.568 399.441 338.095 402.35C335.186 408.06 321.933 443.903 318.27 454.247C316.115 460.209 308.824 479.962 313.709 483.446C313.529 487.289 314.14 492.425 317.516 494.22C320.892 496.016 367.294 497.309 370.85 497.381C377.135 497.56 440.668 498.386 481.216 496.591C521.765 494.795 539.471 490.916 538.429 491.024C539.459 490.721 540.384 490.138 541.102 489.336C541.817 488.537 542.299 487.555 542.487 486.499C543.041 483.844 542.868 481.09 541.985 478.525C546.51 469.726 512.283 396.675 502.801 391.539C502.242 391.225 501.613 391.051 500.97 391.036C499.066 391.036 456.471 389.241 439.914 388.702C436.323 383.638 424.65 364.567 429.14 360.509C435.964 354.547 492.961 384.428 489.908 324.953C488.328 298.052 475.937 282.286 450.796 291.408C448.606 286.667 430.217 247.376 425.297 236.925C444.359 238.066 463.48 237.647 482.473 235.668C482.746 239.021 483.71 242.28 485.305 245.24C486.9 248.2 489.091 250.801 491.74 252.871C506.106 263.646 563.282 262.03 573.662 248.849C576.571 244.871 578.582 240.31 579.555 235.479C580.527 230.649 580.44 225.666 579.3 220.871C580.255 220.263 580.997 219.372 581.419 218.321C581.994 217.208 581.419 215.807 578.941 215.304C575.745 214.825 572.512 214.633 569.28 214.73C569.28 211.785 569.46 206.29 569.28 200.04C569.603 199.825 571.938 197.024 572.189 196.7C575.051 193.356 577.313 189.54 578.869 185.423C580.055 182.083 580.521 178.24 577.397 176.372C572.584 173.751 569.208 178.563 567.592 183.95C566.084 175.654 562.6 163.479 554.268 164.7C540.117 166.855 549.886 201.154 554.483 214.73C550.446 214.161 546.345 214.161 542.308 214.73C546.797 203.452 549.096 188.871 537.567 186.68C535.819 186.293 533.997 186.428 532.324 187.066C530.653 187.705 529.205 188.819 528.157 190.272C527.927 189.459 527.493 188.717 526.897 188.118C526.305 187.518 525.566 187.079 524.755 186.843C523.944 186.606 523.084 186.578 522.261 186.764C521.438 186.948 520.672 187.34 520.041 187.901C514.761 191.708 517.778 200.435 523.919 203.309C523.596 207.001 523.596 210.714 523.919 214.406C520.097 213.945 516.228 214.029 512.427 214.658C512.214 205.889 511.253 197.153 509.553 188.548C511.735 186.995 513.573 185.005 514.944 182.705C516.317 180.405 517.197 177.845 517.527 175.187C518.029 170.411 516.341 166.424 512.355 165.382C507.363 164.089 504.418 167.573 503.556 172.565C499.138 166.46 490.483 164.269 486.28 171.272C472.812 157.266 466.312 165.095 469.724 171.272C472.274 176.013 478.918 178.671 484.09 180.143C484.09 188.188 487.681 194.976 492.135 201.908C495.116 206.577 498.456 211.066 501.042 214.37C495.454 214.191 489.86 214.552 484.341 215.448C480.965 216.346 480.426 218.788 483.551 220.548C482.564 224.758 482.201 229.09 482.473 233.405C463.181 232.379 443.838 232.834 424.614 234.77C423.393 232.148 419.766 224.499 419.335 223.601C418.904 222.703 422.352 212.287 427.2 115.461C449.468 113.593 549.599 115.82 558.793 112.264C559.32 112.075 559.787 111.749 560.149 111.32C560.508 110.891 560.747 110.374 560.84 109.822C563.893 99.8016 565.976 13.6774 560.84 5.66833C559.583 3.69301 555.094 3.08245 552.616 2.7233C520.615 -1.94565 387.083 0.0655915 380.223 3.69301C373.364 7.32042 376.273 42.7326 377.566 49.772C308.214 47.5452 148.069 51.891 132.984 57.5296C129.393 58.8226 128.064 63.7429 127.346 67.4422C121.384 98.2213 138.12 197.275 143.723 227.875C143.364 227.875 143.723 227.875 139.341 234.698C135.633 234.423 131.904 234.617 128.244 235.273C120.055 236.53 112.513 247.843 108.347 254.883C108.167 255.242 97.5722 272.84 95.992 275.713C86.9773 274.313 45.0647 274.851 39.7493 275.139C34.4339 275.426 28.9749 275.821 24.1623 276.18C23.3003 276.18 23.2285 277.832 24.1623 277.868C34.2185 278.479 37.9176 278.694 45.7112 278.802C64.7818 279.089 92.9033 279.879 93.8011 279.772C91.9336 283.04 64.279 332.244 60.5798 339.211C44.4902 369.38 31.848 396.998 31.0938 399.333C26.919 401.23 22.9977 403.646 19.4214 406.516C18.268 409.68 17.5784 412.996 17.3743 416.357C17.1947 422.139 19.2778 423.54 22.4742 426.772C13.8974 445.149 6.84632 464.201 1.3922 483.733C-0.388334 491.634 -0.461862 499.826 1.17671 507.76C2.64315 515.692 5.38425 523.332 9.2935 530.387C11.0496 532.171 13.3252 533.353 15.794 533.763C25.2396 536.42 54.5101 539.832 64.3149 540.946C63.5764 545.333 63.3713 549.796 63.7044 554.234C63.7148 558.808 64.3796 563.354 65.6797 567.738C65.6921 567.846 65.7247 567.951 65.777 568.047C65.8299 568.143 65.9004 568.226 65.9853 568.295C66.0708 568.364 66.1681 568.415 66.2726 568.445C66.3777 568.478 66.4875 568.487 66.5959 568.475C66.7043 568.463 66.8094 568.43 66.9054 568.376C67.0014 568.325 67.0856 568.254 67.1535 568.169C67.2221 568.082 67.273 567.987 67.3037 567.882C67.3344 567.777 67.3442 567.666 67.3318 567.559C67.9064 563.082 68.0631 558.562 67.7987 554.055C67.7752 549.715 67.2815 545.393 66.3262 541.161C71.2824 541.592 76.0591 541.951 80.2253 542.095C79.5631 546.285 79.3822 550.541 79.6865 554.773C79.699 559.347 80.3644 563.893 81.6619 568.277C81.6619 568.496 81.7494 568.705 81.9041 568.861C82.0589 569.016 82.2692 569.103 82.4879 569.103C82.7073 569.103 82.9176 569.016 83.0724 568.861C83.2278 568.705 83.314 568.496 83.314 568.277C83.9082 563.803 84.0767 559.281 83.8168 554.773C83.7926 550.58 83.3107 546.399 82.3802 542.31C90.3892 542.49 208.262 553.085 411.829 549.062C466.384 547.985 531.964 545.471 585.981 539.545C585.268 543.876 585.062 548.276 585.37 552.654C585.388 557.215 586.064 561.753 587.381 566.122C587.357 566.242 587.357 566.368 587.387 566.487C587.414 566.607 587.471 566.718 587.549 566.814C587.627 566.91 587.722 566.987 587.833 567.038C587.944 567.092 588.067 567.119 588.189 567.119C588.312 567.119 588.435 567.092 588.546 567.038C588.656 566.987 588.755 566.91 588.833 566.814C588.907 566.718 588.965 566.607 588.992 566.487C589.022 566.368 589.024 566.242 588.997 566.122C589.626 561.651 589.793 557.126 589.5 552.618C589.461 548.183 588.944 543.762 587.956 539.437C591.942 539.006 601.173 537.857 601.963 537.749C601.256 542.056 601.062 546.432 601.388 550.786C601.391 555.36 602.055 559.909 603.363 564.29C603.388 564.509 603.498 564.71 603.669 564.847C603.842 564.985 604.061 565.051 604.279 565.027C604.498 565.003 604.698 564.893 604.836 564.721C604.976 564.548 605.04 564.33 605.016 564.111C605.608 559.646 605.764 555.135 605.482 550.643C605.458 546.217 604.94 541.808 603.938 537.498C620.136 535.307 669.659 528.627 676.411 514.8C684.384 499.033 683.745 478.525 680.44 461.43ZM353.61 403.607C354.005 402.637 366.037 400.015 379.182 403.607C379.301 403.58 379.427 403.583 379.547 403.613C379.667 403.64 379.777 403.697 379.873 403.771C379.969 403.849 380.047 403.948 380.097 404.059C380.152 404.17 380.178 404.292 380.178 404.415C380.178 404.538 380.152 404.661 380.097 404.771C380.047 404.882 379.969 404.981 379.873 405.056C379.777 405.133 379.667 405.19 379.547 405.217C379.427 405.247 379.301 405.247 379.182 405.223C372.636 406.385 365.953 406.555 359.357 405.726C356.268 405.223 352.353 405.187 353.503 403.607H353.61ZM538.249 489.013C505.028 495.334 321.502 493.897 318.737 492.604C315.971 491.311 315.72 487.145 315.648 484.415C335.545 490.88 529.953 485.888 540.764 480.177C541.338 483.338 541.482 488.402 538.142 489.013H538.249ZM468.538 404.002C468.538 402.781 476.44 402.098 476.799 402.062C481.498 401.701 486.215 401.701 490.914 402.062C493.535 402.35 497.163 402.709 496.875 403.822C496.588 404.936 491.165 405.402 490.231 405.546C486.721 405.869 483.198 406.013 479.672 405.977C477.302 405.905 468.287 405.474 468.431 404.002H468.538ZM514.689 415.961C523.674 433.081 531.219 450.922 537.244 469.295C538.01 471.615 538.435 474.036 538.501 476.478C522.303 481.506 335.617 486.678 316.726 481.255C315.828 481.004 315.576 481.255 315.361 479.747C313.996 469.978 329.978 431.154 333.678 422.103C401.629 419.84 513.971 416.357 514.581 415.961H514.689ZM484.449 178.527C480.522 176.37 476.958 173.606 473.89 170.339C472.489 168.22 472.812 166.747 476.943 168.758C479.528 169.944 483.156 172.063 485.598 173.535C484.97 175.133 484.583 176.816 484.449 178.527ZM570.645 184.956C573.518 179.784 576.355 178.312 576.068 181.365C574.524 186.828 572.33 192.085 569.531 197.024C569.316 193.432 569.065 191.026 568.777 188.655C568.921 188.153 569.639 186.644 570.537 184.956H570.645ZM555.381 216.202C556.099 218.249 556.566 219.47 556.602 219.542C556.641 219.644 556.701 219.737 556.778 219.815C556.853 219.894 556.944 219.957 557.045 220C557.144 220.044 557.252 220.067 557.362 220.069C557.47 220.07 557.578 220.05 557.68 220.009C559.26 219.399 556.925 217.926 553.19 196.269C552.077 189.805 548.773 169.872 555.309 168.938C560.625 168.148 563.498 181.329 564.503 186.536C566.368 196.574 567.568 206.725 568.095 216.92C568.092 217.12 568.161 217.312 568.289 217.464C568.418 217.616 568.598 217.716 568.796 217.747C568.99 217.778 569.193 217.737 569.361 217.631C569.528 217.525 569.654 217.362 569.711 217.172C569.723 216.969 569.723 216.764 569.711 216.561C572.958 216.657 576.185 217.103 579.336 217.89C578.935 218.358 578.433 218.727 577.864 218.968C570.322 222.846 547.516 222.092 539.65 221.949C540.728 219.794 541.482 218.142 542.308 216.166C546.6 216.871 550.978 216.884 555.273 216.202H555.381ZM527.367 208.337C528.193 201.154 530.025 189.697 537.28 191.062C544.535 192.426 542.703 202.949 541.123 209.989C540.15 214.027 538.95 218.008 537.531 221.913H526.757C526.67 217.381 526.838 212.849 527.259 208.337H527.367ZM522.806 191.457C522.974 191.297 523.171 191.175 523.39 191.098C523.605 191.02 523.838 190.988 524.066 191.005C524.296 191.022 524.521 191.087 524.725 191.196C524.928 191.304 525.108 191.455 525.248 191.636C525.82 192.209 526.337 192.834 526.793 193.504C525.772 195.794 525.06 198.209 524.674 200.687C522.806 198.101 520.4 193.396 522.806 191.457ZM511.493 169.62C516.162 171.093 512.498 183.376 509.374 187.111C508.512 183.245 507.222 179.487 505.531 175.906C506.572 172.745 508.332 168.615 511.493 169.584V169.62ZM502.658 216.597C504.418 218.824 505.567 220.189 505.567 220.189C505.71 220.33 505.899 220.413 506.1 220.425C506.3 220.438 506.497 220.376 506.653 220.253C506.812 220.13 506.92 219.954 506.958 219.756C506.998 219.56 506.962 219.356 506.86 219.183C506.86 219.183 500.503 210.133 495.259 200.759C491.309 193.576 487.537 186.393 488.579 178.455C489.405 172.206 492.709 169.549 498.276 173.176C506.321 178.348 509.984 210.24 511.134 219.865C511.145 220.118 511.236 220.359 511.388 220.559C511.544 220.758 511.756 220.905 511.996 220.979C512.965 220.979 512.822 219.937 512.786 219.435C512.75 218.932 512.786 216.418 512.786 216.166C516.602 216.649 520.462 216.649 524.279 216.166C524.494 218.788 524.745 220.835 524.925 221.913C512.175 221.913 496.768 222.775 486.209 218.644C491.635 217.571 497.133 216.886 502.658 216.597ZM485.454 221.877C490.707 223.913 496.244 225.124 501.868 225.468C508.225 226.043 551.502 226.115 556.422 225.863C563.842 225.741 571.189 224.369 578.151 221.805C578.818 226.213 578.567 230.715 577.412 235.025C576.257 239.331 574.221 243.354 571.435 246.838C562.708 257.073 507.506 259.408 494.254 250.07C485.526 244.072 483.946 232.077 485.454 221.841V221.877ZM456.507 327.323C457.261 329.73 114.811 329.837 114.452 329.801C100.086 329.801 103.678 329.801 98.8652 328.616C97.5722 328.329 97.3208 328.329 97.0694 327.072C96.7651 325.1 96.6809 323.1 96.818 321.11C96.8938 321.257 97.0152 321.376 97.1648 321.448C97.3136 321.517 97.4821 321.538 97.6441 321.505C97.6441 321.505 456.399 316.621 458.734 316.549C459.703 320.751 459.847 324.665 456.507 327.323ZM557.536 109.355C557.536 109.355 557.751 108.996 557.823 109.104C557.895 109.211 557.536 109.319 557.356 109.355H557.536ZM378.93 18.7773C378.93 16.4428 379.864 7.60774 381.947 6.53029C386.688 4.1599 537.352 2.14866 557.931 8.57745C561.522 16.1196 560.373 100.843 557.356 109.355C539.686 112.12 450.761 111.905 427.631 114.275C429.032 86.0102 429.642 62.1986 428.493 57.5655C428.272 56.9615 427.913 56.4169 427.446 55.9742C426.979 55.5314 426.416 55.2036 425.8 55.0156C417.934 51.6036 388.34 50.6339 379.721 50.3466C378.601 39.862 378.338 29.3043 378.93 18.7773ZM130.578 109.211C130.039 101.669 127.382 63.5993 134.565 60.9415C138.156 59.6845 150.798 58.4275 169.151 57.35C204.312 55.1592 259.729 53.3994 310.153 53.0402C321.359 53.0402 416.031 52.2142 425.297 58.5712C428.026 70.9977 419.299 209.055 417.36 222.38C332.492 225.145 231.93 229.311 146.345 227.228C144.908 219.004 133.918 155.542 130.578 109.211ZM145.231 229.634C145.239 229.551 145.239 229.467 145.231 229.383C205.748 231.251 395.128 225.037 418.186 224.894C420.736 230.82 456.543 310.264 458.051 314.681C457.656 314.681 97.3567 319.566 96.8898 319.925C101.415 304.769 138.839 240.696 145.231 229.634ZM243.962 470.265C241.304 475.437 160.783 511.424 144.226 516.416C144.547 514.761 144.668 513.073 144.585 511.388C169.043 502.912 222.125 480.537 245.937 464.698C245.484 466.632 244.821 468.511 243.962 470.301V470.265ZM246.44 462.328C239.257 466.566 232.397 469.511 144.549 509.448C144.553 507.824 144.336 506.204 143.903 504.636C155.395 499.248 233.331 469.044 247.23 457.012C247.051 458.557 246.799 460.424 246.44 462.364V462.328ZM61.4417 388.63C63.1689 390.666 64.2379 393.176 64.5076 395.831C64.7766 398.486 64.234 401.159 62.9502 403.499C62.3755 404.397 63.7403 405.331 64.3149 404.397C66.4835 402.032 67.7654 398.992 67.9423 395.79C68.1187 392.587 67.1803 389.424 65.2846 386.834C82.7393 378.825 99.9067 371.283 104.612 369.236C105.789 371.627 106.419 374.249 106.456 376.916C106.494 379.58 105.937 382.22 104.827 384.644C104.396 385.793 105.689 386.224 106.3 385.47C108.275 382.959 109.505 379.945 109.848 376.769C110.191 373.594 109.633 370.385 108.239 367.512C112.118 365.321 121.168 360.329 125.586 360.329C131.117 360.329 243.351 451.625 245.434 453.708C236.061 463.369 149.038 497.812 141.712 501.331C126.268 497.74 32.0276 416.68 23.1925 408.347C28.6875 403.786 55.2643 391.503 61.4417 388.63ZM20.4629 410C31.6684 420.954 125.155 502.553 140.814 505.138C140.5 506.491 140.355 507.88 140.383 509.269C115.242 496.986 43.4126 434.781 19.6369 414.776C19.7446 414.776 20.2834 411.257 20.5707 410H20.4629ZM21.0017 422.318C19.9886 420.777 19.4861 418.955 19.5651 417.111C43.0536 440.815 109.352 499.105 140.347 511.244C140.284 513.166 140.477 515.084 140.922 516.954C122.497 512.824 23.444 425.263 21.1095 422.318H21.0017ZM674.655 513.614C651.454 559.657 21.8636 547.626 11.6639 529.668C7.34038 522.154 4.41971 513.914 3.04429 505.354C4.42976 508.389 6.744 510.903 9.65266 512.537C62.5192 543.316 588.495 535.271 657.161 510.598C671.71 505.354 679.036 494.041 680.688 478.274C681.661 490.381 679.565 502.538 674.583 513.614H674.655Z" fill="#E6E1E5"/>
<path d="M136.863 269.356C390.818 272.948 415.061 270.757 422.172 269.644C423.86 269.392 424.938 268.818 424.866 266.842C424.866 261.635 412.655 237.751 409.422 236.099C407.986 235.345 150.834 238.972 149.936 239.26C149.768 239.299 149.612 239.376 149.475 239.481C149.339 239.586 149.226 239.717 149.146 239.87C146.703 243.857 134.78 263.538 135.318 267.992C135.376 268.363 135.563 268.704 135.845 268.952C136.127 269.201 136.486 269.345 136.863 269.356ZM150.977 241.738C153.563 241.414 406.549 238.9 408.093 239.044C410.775 242.902 413.176 246.945 415.276 251.147C409.386 251.147 146.129 252.548 144.764 252.584C146.344 249.424 148.427 245.832 150.977 241.738ZM143.794 254.308C145.195 254.308 411.577 252.943 416.138 252.835C418.503 257.235 420.37 261.886 421.705 266.699C408.919 268.746 292.411 267.74 138.156 266.699C139.597 262.347 141.461 258.151 143.722 254.164L143.794 254.308ZM335.078 281.567C334.363 279.981 333.192 278.643 331.714 277.725C330.239 276.803 328.521 276.342 326.782 276.396C317.659 276.396 241.052 274.277 234.156 277.078C229.754 282.412 226.348 288.496 224.1 295.036C223.885 296.616 224.675 297.334 225.644 297.442C247.193 299.776 318.629 302.003 337.161 298.591C339.46 298.16 339.747 295.718 339.28 293.383C338.17 289.349 336.763 285.399 335.078 281.567ZM226.65 295.036C228.713 289.208 231.514 283.669 234.982 278.551C240.441 276.755 311.446 280.49 326.89 280.454C327.808 280.421 328.718 280.655 329.508 281.125C330.298 281.598 330.936 282.286 331.343 283.112C333.088 286.841 334.45 290.741 335.401 294.748C317.193 297.586 239.867 295.969 226.65 295.036ZM584.508 286.165C579.444 279.197 554.052 279.52 545.54 279.772C538.357 279.772 512.247 280.957 512.247 287.996C512.277 288.565 512.442 289.122 512.729 289.616C513.016 290.109 513.417 290.525 513.899 290.834C514.581 291.372 509.877 338.708 516.341 364.1C518.46 372.504 521.19 376.67 529.199 380.154C544.57 386.834 570.07 385.362 580.306 371.104C582.353 366.937 581.922 354.798 582.102 351.099C598.012 354.259 611.049 347.795 614.425 330.663C616.544 319.637 613.815 312.418 609.11 308.037C605.967 305.478 602.25 303.715 598.281 302.904C594.309 302.09 590.2 302.249 586.304 303.368C586.169 303.413 586.022 303.428 585.882 303.404C585.738 303.383 585.603 303.329 585.489 303.243C585.373 303.158 585.277 303.048 585.215 302.919C585.149 302.791 585.115 302.65 585.118 302.506C585.118 300.602 585.801 287.709 584.508 286.165ZM516.269 286.919C525.966 281.244 565.473 280.813 578.223 286.596C578.654 286.811 580.27 287.637 580.27 287.996C580.27 288.355 578.618 289.217 578.223 289.397C568.598 293.743 534.227 295.718 516.162 289.11C514.905 288.427 516.162 287.062 516.162 286.919H516.269ZM587.309 307.031C590.574 306.092 594.016 305.957 597.345 306.636C600.673 307.319 603.785 308.797 606.416 310.946C610.295 314.537 612.234 320.715 610.439 329.873C610.083 333.058 608.978 336.111 607.218 338.789C605.458 341.465 603.091 343.691 600.311 345.281C594.421 347.933 587.788 348.439 581.563 346.717C581.258 346.607 580.931 346.559 580.608 346.58C580.282 346.6 579.964 346.687 579.674 346.834C579.384 346.984 579.13 347.19 578.923 347.441C578.716 347.693 578.564 347.983 578.474 348.298C577.505 351.027 578.869 362.053 576.894 369.021C567.807 381.339 544.57 382.453 530.815 376.67C523.847 373.689 521.908 370.601 520.04 363.166C515.228 345.532 514.941 309.617 516.018 291.947C527.331 297.298 566.515 298.843 581.922 290.941C581.922 302.075 580.557 303.943 583.359 306.205C583.901 306.615 584.526 306.899 585.19 307.043C585.852 307.184 586.54 307.181 587.202 307.031H587.309ZM238.43 383.135C228.998 375.135 218.851 368.018 208.118 361.873C203.983 359.434 199.585 357.471 195.009 356.019C191.166 355.014 189.55 356.989 190.34 359.611C191.959 363.376 194.099 366.892 196.697 370.062C204.961 380.522 214.464 389.941 224.998 398.112C241.016 411.508 261.775 427.742 276.931 439.27C277.704 439.836 278.581 440.24 279.511 440.459C280.442 440.68 281.407 440.713 282.352 440.557C283.295 440.399 284.196 440.055 285.007 439.543C285.815 439.034 286.512 438.367 287.06 437.582C289.718 434.673 291.37 429.573 288.389 426.808C284.941 423.719 263.858 403.858 238.43 383.135ZM204.024 375.162L199.103 367.225C200.855 366.497 202.336 365.24 203.341 363.633L211.135 366.794C209.179 367.183 207.412 368.219 206.121 369.739C204.83 371.259 204.091 373.169 204.024 375.162ZM215.05 384.32C212.454 382.135 210.051 379.732 207.867 377.137C208.118 372.792 209.483 370.852 213.828 370.709C216.724 372.092 219.458 373.791 221.981 375.773C220.05 376.243 218.326 377.335 217.074 378.876C215.822 380.421 215.111 382.333 215.05 384.32ZM276.464 436.577C272.478 433.237 219.467 388.271 216.199 385.398C216.473 383.387 217.351 381.507 218.717 380.008C220.083 378.505 221.873 377.455 223.849 376.994C236.239 386.188 254.053 401.416 285.12 427.275C283.911 427.212 282.702 427.418 281.58 427.874C280.459 428.328 279.449 429.023 278.624 429.909C277.8 430.794 277.179 431.851 276.806 433.003C276.432 434.155 276.316 435.374 276.464 436.577ZM561.055 476.37C565.545 479.423 568.669 478.023 571.579 473.785C578.762 463.585 603.902 418.44 603.902 418.08C603.902 417.721 604.189 418.404 603.004 403.894C602.953 403.349 602.756 402.826 602.433 402.383C602.112 401.94 601.675 401.593 601.172 401.377C600.67 401.159 600.116 401.081 599.574 401.153C599.029 401.221 598.515 401.437 598.084 401.775L585.801 410.718C585.801 410.718 558.541 467.069 558.254 467.571C557.76 469.149 557.766 470.84 558.266 472.414C558.769 473.988 559.742 475.368 561.055 476.37ZM599.089 406.157C599.305 408.778 599.592 412.262 599.808 414.669C597.141 413.391 594.349 412.394 591.475 411.688L599.089 406.157ZM588.818 414.13C591.931 416.336 595.528 417.766 599.305 418.296C598.766 419.23 571.327 469.295 571.04 469.798C570.205 468.101 568.834 466.728 567.14 465.889C565.446 465.051 563.522 464.797 561.666 465.165C564.467 459.957 587.812 415.926 588.818 414.13Z" fill="#E6E1E5"/>
<path d="M572.297 342.91C571.911 342.366 571.42 341.905 570.851 341.555C570.282 341.204 569.651 340.968 568.993 340.863C566.868 340.294 564.71 339.863 562.528 339.57C563.749 348.118 564.467 357.528 564.431 358.354C564.377 358.902 564.108 359.404 563.686 359.754C563.261 360.102 562.717 360.272 562.169 360.221C561.621 360.159 561.115 359.883 560.768 359.452C560.418 359.024 560.25 358.473 560.301 357.923C560.301 357.312 560.086 354.834 559.906 339.211C552.723 338.313 518.137 335.62 519.502 342.515C519.502 342.874 516.664 360.473 527.654 368.913C538.644 377.353 560.624 375.701 568.31 367.117C570.492 364.504 571.932 361.352 572.476 357.995C573.327 352.997 573.263 347.888 572.297 342.91ZM580.916 310.407C580.916 312.023 578.762 324.378 577.325 340.971L579.049 341.33C585.37 342.671 591.951 341.952 597.832 339.283C599.885 338.143 601.583 336.463 602.741 334.423C603.902 332.381 604.477 330.065 604.405 327.718C604.65 324.803 604.142 321.873 602.932 319.21C601.723 316.545 599.853 314.235 597.497 312.502C595.142 310.766 592.382 309.662 589.479 309.294C586.576 308.929 583.631 309.312 580.916 310.407ZM582.533 311.628C584.825 311.266 587.169 311.398 589.404 312.018C591.643 312.637 593.72 313.729 595.498 315.22C597.207 316.785 598.53 318.725 599.365 320.889C600.2 323.049 600.523 325.375 600.311 327.682C599.987 336.913 590.506 338.672 581.419 337.739C581.85 331.202 582.209 323.696 582.533 311.628ZM234.912 278.551C234.912 278.551 234.948 278.587 234.912 278.551V278.551ZM544.068 100.807C544.059 101.447 544.175 102.082 544.412 102.676C544.651 103.27 545.001 103.812 545.451 104.269C545.896 104.727 546.432 105.091 547.019 105.341C547.608 105.591 548.24 105.723 548.88 105.728C549.859 105.748 550.82 105.479 551.642 104.951C552.466 104.424 553.115 103.663 553.502 102.766C553.89 101.869 554.004 100.876 553.827 99.9152C553.651 98.9534 553.19 98.0666 552.504 97.3679C551.822 96.6692 550.946 96.1892 549.988 95.9907C549.033 95.7922 548.037 95.8829 547.132 96.2519C546.226 96.6208 545.451 97.251 544.905 98.0627C544.361 98.8737 544.068 99.8297 544.068 100.807ZM150.978 219.29C151.805 220.906 152.882 221.087 153.564 220.584C154.247 220.081 381.696 218.105 398.612 217.207C402.251 217.263 405.878 216.804 409.386 215.842C417.467 208.659 420.628 74.3731 417.467 68.1598C409.386 52.034 156.473 62.4141 140.922 67.1189C128.532 70.8541 145.268 207.833 150.978 219.29ZM140.24 72.9365C140.24 72.29 141.03 69.776 141.641 69.5964C158.844 64.4247 408.632 55.9134 415.42 69.4175C416.001 72.119 416.264 74.8792 416.21 77.642C416.821 93.301 416.21 126.845 414.594 156.906C414.271 162.652 411.721 209.737 407.986 214.011C393.081 217.171 163.405 217.89 153.205 218.285C147.387 204.781 134.817 96.6404 140.24 72.9365ZM549.347 21.614C550.323 21.6355 551.283 21.3665 552.107 20.8402C552.93 20.3145 553.576 19.5557 553.965 18.6611C554.358 17.7658 554.471 16.7759 554.298 15.8153C554.121 14.8548 553.666 13.968 552.986 13.2673C552.304 12.5673 551.433 12.0854 550.478 11.8823C549.523 11.6799 548.53 11.7654 547.623 12.1291C546.716 12.4922 545.941 13.1171 545.391 13.9236C544.84 14.73 544.544 15.6821 544.535 16.6577C544.52 17.3009 544.633 17.9402 544.87 18.5383C545.103 19.1365 545.457 19.6824 545.905 20.1434C546.351 20.6051 546.887 20.9721 547.48 21.2248C548.069 21.4775 548.704 21.61 549.347 21.614Z" fill="#E6E1E5"/>
<path d="M210.526 163.442H253.193C258.13 163.423 262.858 161.446 266.34 157.945C269.821 154.444 271.77 149.704 271.761 144.766V110.144C271.761 105.196 269.813 100.447 266.338 96.9249C262.863 93.4033 258.14 91.3914 253.193 91.3248H210.526C208.052 91.3156 205.601 91.7956 203.313 92.7385C201.025 93.6808 198.947 95.0665 197.197 96.8159C195.448 98.5653 194.062 100.644 193.12 102.931C192.178 105.219 191.697 107.671 191.707 110.144V144.766C191.716 147.229 192.21 149.664 193.161 151.936C194.112 154.207 195.501 156.268 197.248 158.002C198.996 159.736 201.068 161.11 203.346 162.043C205.624 162.977 208.064 163.452 210.526 163.442ZM194.76 110.144C194.825 105.993 196.51 102.032 199.456 99.1066C202.402 96.1805 206.374 94.5225 210.526 94.4853H253.193C255.289 94.4618 257.371 94.8536 259.315 95.6385C261.259 96.4234 263.029 97.5857 264.522 99.0583C266.014 100.531 267.2 102.285 268.011 104.218C268.822 106.152 269.242 108.227 269.247 110.324V144.766C269.237 146.866 268.815 148.942 268.003 150.877C267.191 152.813 266.006 154.569 264.516 156.047C263.025 157.524 261.257 158.694 259.314 159.488C257.372 160.282 255.292 160.686 253.193 160.677H210.526C208.446 160.668 206.388 160.249 204.47 159.444C202.552 158.639 200.812 157.465 199.348 155.987C197.883 154.51 196.724 152.758 195.938 150.833C195.15 148.908 194.75 146.847 194.76 144.766V110.144ZM325.884 189.085C326.602 191.204 328.398 190.738 328.901 189.409C329.583 187.505 333.57 173.822 334.073 171.451C336.838 170.589 329.044 173.283 353.143 164.52C353.395 164.423 353.607 164.253 353.76 164.032C353.913 163.81 353.994 163.549 353.994 163.281C353.994 163.012 353.913 162.751 353.76 162.53C353.607 162.309 353.395 162.139 353.143 162.041L316.223 147.28C315.996 147.173 315.744 147.128 315.495 147.147C315.244 147.167 315.005 147.252 314.798 147.394C314.592 147.535 314.424 147.729 314.316 147.955C314.206 148.181 314.157 148.431 314.176 148.681C314.176 148.681 323.909 183.375 325.884 189.085ZM317.875 151.123L348.977 163.37C344.811 164.915 337.772 167.572 334.396 168.937C332.887 169.512 332.277 169.763 331.918 170.23C331.559 170.697 332.816 167.896 327.536 184.165L317.875 151.123ZM402.634 45.8205C402.676 46.0359 402.793 46.2299 402.963 46.3677C403.134 46.5061 403.349 46.5792 403.568 46.5747C404.322 46.5747 427.559 48.8014 432.3 47.5444C435.353 46.7183 435.892 41.3311 436.179 38.1706C436.538 33.3939 436.179 21.6856 434.168 17.699C431.438 12.3117 411.29 14.1075 405.436 15.149C403.882 15.3678 402.398 15.9326 401.09 16.8011C400.33 17.6846 399.887 18.7973 399.833 19.9616C399.797 28.659 400.737 37.3328 402.634 45.8205ZM403.676 19.5666C409.35 17.8067 425.512 17.1244 430.648 19.5666C432.408 24.2355 433.342 40.2895 431.223 44.0247C427.883 44.8867 407.483 44.8867 404.071 44.9226C403.963 42.1212 402.311 27.001 403.676 19.5666ZM450.832 45.6768C450.88 45.889 451 46.079 451.167 46.2162C451.338 46.3527 451.547 46.4284 451.766 46.431C452.52 46.431 475.757 48.6577 480.498 47.4007C483.551 46.5747 484.09 41.1874 484.413 38.0269C484.736 33.2502 484.413 21.5419 482.366 17.5553C479.636 12.1322 459.488 13.9638 453.634 15.0054C452.083 15.2391 450.602 15.8027 449.288 16.6575C448.543 17.5508 448.103 18.6576 448.031 19.818C447.998 28.5153 448.938 37.1891 450.832 45.6768ZM451.874 19.4229C457.548 17.6272 473.71 16.9807 478.846 19.4229C480.606 24.0919 481.54 40.1459 479.421 43.8451C476.081 44.743 455.681 44.743 452.269 44.7789C452.161 41.9775 450.509 26.8573 451.874 19.4229ZM501.257 47.257C501.299 47.4725 501.416 47.6665 501.586 47.8043C501.757 47.9427 501.972 48.0158 502.191 48.0113C502.945 48.0113 526.182 50.238 530.923 48.981C533.976 48.1549 534.514 42.7677 534.802 39.6072C535.161 34.8305 534.802 23.1222 532.79 19.1356C530.061 13.7483 509.913 15.5441 504.058 16.5856C502.508 16.8135 501.023 17.3777 499.713 18.2377C498.953 19.1212 498.509 20.2339 498.456 21.3982C498.42 30.0956 499.359 38.7694 501.257 47.257ZM502.299 21.0032C507.973 19.2433 524.135 18.561 529.271 21.0032C531.031 25.6721 531.964 41.7261 529.845 45.4613C526.505 46.3233 506.106 46.3233 502.694 46.3592C502.586 43.5578 500.934 28.4376 502.299 21.0032ZM451.156 100.914C451.407 101.632 451.982 101.704 452.089 101.668C452.879 101.668 476.081 103.895 480.821 102.638C483.874 101.812 484.413 96.4247 484.736 93.2642C485.059 88.4875 484.736 76.7792 482.725 72.8285C479.959 67.4054 459.811 69.237 453.993 70.2427C452.428 70.4653 450.934 71.0295 449.611 71.8948C448.86 72.7972 448.417 73.9184 448.354 75.0912C448.322 83.7767 449.261 92.4381 451.156 100.914ZM452.233 74.6602C457.908 72.9004 474.033 72.218 479.169 74.6602C480.929 79.3292 481.863 95.3832 479.744 99.1183C476.404 99.9803 456.04 99.9803 452.628 100.016C452.484 97.2148 450.832 82.0946 452.233 74.6602ZM535.125 71.356C540.871 62.8801 545.899 55.2302 546.079 54.871C546.259 54.5119 543.637 51.2795 542.092 53.5781C531.102 70.4941 532.611 68.8779 531.821 68.5906C525.5 66.292 505.1 67.0821 501.904 70.0631C499.749 72.0743 500.575 79.3651 500.826 82.4897C498.527 81.1967 496.768 80.263 496.121 80.0116C494.469 79.3651 494.577 80.9813 495.475 81.5559L501.077 85.1474C501.533 89.8673 502.263 94.5565 503.268 99.1902C503.304 99.4089 503.418 99.6074 503.591 99.7465C503.762 99.8856 503.981 99.9561 504.202 99.9444C504.956 99.9444 528.193 102.171 532.934 100.914C539.111 99.1902 537.208 76.5278 535.125 71.356ZM504.31 72.8285C512.759 70.9068 521.513 70.7474 530.025 72.3617L517.562 92.0072C516.305 91.2889 509.589 87.3382 503.987 84.1777C503.75 80.4288 503.858 76.6662 504.31 72.9363V72.8285ZM531.857 97.2508C528.481 98.1486 508.117 98.1486 504.705 98.1846C504.705 96.748 504.166 92.0431 503.915 86.8354L517.562 95.3113C517.907 95.3492 518.257 95.2885 518.568 95.1357C518.88 94.9835 519.139 94.7452 519.322 94.4494C520.472 92.9769 526.254 84.5728 532.144 75.9172C533.257 82.3819 533.616 94.1621 531.928 97.2508H531.857ZM389.058 20.4285C390.034 20.4429 390.989 20.1673 391.809 19.6371C392.626 19.1069 393.266 18.3455 393.652 17.4502C394.036 16.5543 394.147 15.565 393.967 14.6064C393.788 13.6484 393.329 12.7649 392.647 12.0682C391.964 11.3714 391.094 10.8928 390.139 10.693C389.185 10.4931 388.193 10.5813 387.29 10.9463C386.386 11.3107 385.611 11.9356 385.063 12.7414C384.515 13.5472 384.216 14.498 384.21 15.4723C384.21 16.7685 384.716 18.0131 385.622 18.9397C386.529 19.8663 387.762 20.4005 389.058 20.4285Z" fill="#E6E1E5"/>
</svg>
